<svg width="365" height="90" viewBox="0 0 365 90" fill="none" xmlns="http://www.w3.org/2000/svg">
<rect width="364.054" height="90" rx="42.8571" fill="#0069AF"/>
<path d="M21.4285 0H342.625V8.57143H21.4285V0Z" fill="#00528A"/>
<path d="M21.4285 81.4286H342.625V90H21.4285V81.4286Z" fill="#00528A"/>
<rect x="12.8572" y="4.28564" width="8.57143" height="8.57143" fill="#00528A"/>
<rect x="8.57153" y="8.57129" width="4.28571" height="12.8571" fill="#00528A"/>
<rect x="4.28564" y="12.8571" width="4.28571" height="12.8571" fill="#00528A"/>
<rect y="21.4285" width="8.57143" height="4.28571" fill="#00528A"/>
<rect x="12.8572" y="77.1427" width="8.57143" height="8.57143" fill="#00528A"/>
<rect x="8.57153" y="68.5713" width="4.28571" height="12.8571" fill="#00528A"/>
<rect width="4.28571" height="12.8571" transform="matrix(1 0 0 -1 4.28564 77.1427)" fill="#00528A"/>
<rect width="8.57143" height="4.28571" transform="matrix(1 0 0 -1 0 68.5713)" fill="#00528A"/>
<rect y="25.7142" width="8.57143" height="38.5714" fill="#00528A"/>
<rect width="8.57143" height="8.57143" transform="matrix(-1 0 0 1 351.197 4.28564)" fill="#00528A"/>
<rect width="4.28571" height="12.8571" transform="matrix(-1 0 0 1 355.483 8.57141)" fill="#00528A"/>
<rect width="4.28571" height="12.8571" transform="matrix(-1 0 0 1 359.768 12.8571)" fill="#00528A"/>
<rect width="8.57143" height="4.28571" transform="matrix(-1 0 0 1 364.054 21.4285)" fill="#00528A"/>
<rect width="8.57143" height="8.57143" transform="matrix(-1 0 0 1 351.197 77.1428)" fill="#00528A"/>
<rect width="4.28571" height="12.8571" transform="matrix(-1 0 0 1 355.483 68.5714)" fill="#00528A"/>
<rect x="359.768" y="77.1428" width="4.28571" height="12.8571" transform="rotate(180 359.768 77.1428)" fill="#00528A"/>
<rect x="364.054" y="68.5714" width="8.57143" height="4.28571" transform="rotate(180 364.054 68.5714)" fill="#00528A"/>
<rect width="8.57143" height="38.5714" transform="matrix(-1 0 0 1 364.054 25.7144)" fill="#00528A"/>
<path d="M55.2717 47.6169C55.2717 48.8301 54.9732 49.8892 54.3762 50.7943C53.7793 51.6994 52.9127 52.4022 51.7766 52.9029C50.6597 53.3843 49.2924 53.625 47.6749 53.625C46.9624 53.625 46.2595 53.5769 45.5663 53.4806C44.8923 53.3843 44.2375 53.2495 43.6021 53.0762C42.9858 52.8836 42.3985 52.6526 41.8401 52.383V48.3102C42.8222 48.7338 43.8331 49.1286 44.873 49.4945C45.9321 49.8411 46.9816 50.0144 48.0215 50.0144C48.734 50.0144 49.3021 49.9181 49.7257 49.7255C50.1686 49.533 50.4864 49.273 50.6789 48.9456C50.8907 48.6183 50.9967 48.2428 50.9967 47.8191C50.9967 47.2992 50.8137 46.8563 50.4478 46.4904C50.1012 46.1245 49.6294 45.7875 49.0325 45.4794C48.4355 45.1521 47.7519 44.8054 46.9816 44.4396C46.5002 44.2085 45.9803 43.9389 45.4218 43.6308C44.8634 43.3034 44.3242 42.9086 43.8043 42.4465C43.3036 41.9651 42.8896 41.3874 42.5622 40.7134C42.2348 40.0394 42.0711 39.2306 42.0711 38.287C42.0711 37.0546 42.3504 36.0051 42.9088 35.1385C43.4865 34.2527 44.2953 33.5787 45.3352 33.1166C46.3943 32.6544 47.6364 32.4233 49.0614 32.4233C50.1397 32.4233 51.1603 32.5485 52.1232 32.7988C53.1053 33.0492 54.1259 33.4054 55.185 33.8676L53.7696 37.276C52.826 36.8909 51.9788 36.5924 51.2277 36.3806C50.4767 36.1688 49.7065 36.0629 48.9169 36.0629C48.3777 36.0629 47.9156 36.1495 47.5304 36.3228C47.1453 36.4961 46.8468 36.7369 46.635 37.045C46.4424 37.3531 46.3462 37.719 46.3462 38.1426C46.3462 38.624 46.4906 39.038 46.7794 39.3847C47.0683 39.712 47.5016 40.0298 48.0793 40.3379C48.657 40.646 49.3791 41.0119 50.2456 41.4355C51.3048 41.9362 52.2002 42.4561 52.932 42.9953C53.683 43.5345 54.2607 44.17 54.6651 44.9017C55.0695 45.6335 55.2717 46.5385 55.2717 47.6169ZM62.9777 35.8607C62.9777 36.6309 62.9488 37.3723 62.891 38.0848C62.8525 38.7973 62.814 39.298 62.7755 39.5869H63.0066C63.3532 39.0477 63.7576 38.6144 64.2197 38.287C64.6819 37.9404 65.1922 37.6901 65.7506 37.536C66.3283 37.3627 66.9349 37.276 67.5704 37.276C68.7066 37.276 69.6983 37.4782 70.5456 37.8826C71.3929 38.287 72.0476 38.9129 72.5098 39.7602C72.9912 40.6075 73.2319 41.7051 73.2319 43.0531V53.3362H68.928V44.1218C68.928 42.9857 68.7162 42.1384 68.2925 41.5799C67.8881 41.0022 67.2527 40.7134 66.3861 40.7134C65.5196 40.7134 64.8359 40.9156 64.3353 41.32C63.8539 41.7244 63.5072 42.3117 63.2954 43.082C63.0836 43.8522 62.9777 44.7958 62.9777 45.9127V53.3362H58.6738V31.3835H62.9777V35.8607ZM84.1281 37.2472C86.2464 37.2472 87.8639 37.7093 88.9808 38.6336C90.117 39.5387 90.6851 40.9348 90.6851 42.822V53.3362H87.681L86.8433 51.1987H86.7278C86.2849 51.7571 85.8227 52.2193 85.3413 52.5852C84.8791 52.951 84.34 53.211 83.7237 53.3651C83.1268 53.5384 82.3854 53.625 81.4996 53.625C80.5753 53.625 79.7376 53.4517 78.9866 53.1051C78.2548 52.7392 77.6771 52.1904 77.2535 51.4586C76.8298 50.7076 76.618 49.7641 76.618 48.6279C76.618 46.9526 77.2053 45.7201 78.38 44.9306C79.5547 44.1218 81.3166 43.6789 83.666 43.6019L86.4101 43.5152V42.822C86.4101 41.994 86.1886 41.3874 85.7457 41.0022C85.3221 40.6171 84.7251 40.4245 83.9548 40.4245C83.1846 40.4245 82.4335 40.5401 81.7018 40.7711C80.97 40.983 80.2383 41.2526 79.5065 41.5799L78.0911 38.6625C78.9384 38.2196 79.8724 37.873 80.893 37.6227C81.9329 37.3723 83.0112 37.2472 84.1281 37.2472ZM84.7347 46.086C83.3482 46.1245 82.3854 46.3749 81.8462 46.837C81.307 47.2992 81.0374 47.9058 81.0374 48.6568C81.0374 49.3115 81.23 49.7833 81.6151 50.0722C82.0003 50.3418 82.5009 50.4766 83.1172 50.4766C84.0415 50.4766 84.8214 50.207 85.4569 49.6678C86.0923 49.1093 86.4101 48.3294 86.4101 47.3281V46.0282L84.7347 46.086ZM103.9 37.276C104.112 37.276 104.363 37.2857 104.651 37.3049C104.94 37.3242 105.171 37.3531 105.345 37.3916L105.027 41.4355C104.892 41.397 104.69 41.3681 104.42 41.3488C104.17 41.3103 103.949 41.2911 103.756 41.2911C103.198 41.2911 102.658 41.3681 102.138 41.5222C101.619 41.657 101.147 41.8784 100.723 42.1865C100.319 42.4946 99.9913 42.9086 99.741 43.4286C99.5099 43.9293 99.3944 44.5551 99.3944 45.3061V53.3362H95.0905V37.5649H98.3545L98.99 40.2223H99.1922C99.5003 39.6831 99.8854 39.1921 100.348 38.7492C100.81 38.3063 101.339 37.95 101.936 37.6804C102.552 37.4108 103.207 37.276 103.9 37.276ZM114.142 37.276C115.606 37.276 116.857 37.5553 117.897 38.1137C118.956 38.6722 119.775 39.4809 120.353 40.5401C120.93 41.5992 121.219 42.899 121.219 44.4396V46.5193H111.052C111.09 47.7325 111.446 48.6857 112.12 49.3789C112.814 50.0722 113.767 50.4188 114.98 50.4188C116.001 50.4188 116.925 50.3225 117.753 50.1299C118.581 49.9181 119.438 49.6004 120.324 49.1767V52.4985C119.553 52.8836 118.735 53.1629 117.868 53.3362C117.021 53.5287 115.991 53.625 114.778 53.625C113.199 53.625 111.803 53.3362 110.589 52.7585C109.376 52.1615 108.423 51.2661 107.73 50.0722C107.037 48.8782 106.69 47.3762 106.69 45.5661C106.69 43.7174 106.998 42.1865 107.614 40.9733C108.25 39.7409 109.126 38.8166 110.243 38.2004C111.36 37.5842 112.66 37.276 114.142 37.276ZM114.171 40.3379C113.343 40.3379 112.65 40.6075 112.091 41.1467C111.552 41.6858 111.235 42.5235 111.138 43.6597H117.175C117.175 43.0242 117.06 42.4561 116.829 41.9554C116.617 41.4548 116.289 41.06 115.846 40.7711C115.404 40.4823 114.845 40.3379 114.171 40.3379ZM146.539 45.4217C146.539 46.7311 146.356 47.8961 145.991 48.9168C145.644 49.9374 145.134 50.8039 144.46 51.5164C143.805 52.2097 143.006 52.7392 142.062 53.1051C141.119 53.4517 140.05 53.625 138.856 53.625C137.758 53.625 136.738 53.4517 135.794 53.1051C134.87 52.7392 134.071 52.2097 133.397 51.5164C132.723 50.8039 132.193 49.9374 131.808 48.9168C131.442 47.8961 131.259 46.7311 131.259 45.4217C131.259 43.6693 131.567 42.1961 132.184 41.0022C132.8 39.7891 133.686 38.8647 134.841 38.2293C135.996 37.5938 137.364 37.276 138.943 37.276C140.425 37.276 141.735 37.5938 142.871 38.2293C144.007 38.8647 144.903 39.7891 145.557 41.0022C146.212 42.1961 146.539 43.6693 146.539 45.4217ZM135.65 45.4217C135.65 46.4615 135.756 47.3377 135.967 48.0502C136.199 48.7434 136.555 49.273 137.036 49.6389C137.518 49.9855 138.143 50.1588 138.914 50.1588C139.684 50.1588 140.3 49.9855 140.762 49.6389C141.244 49.273 141.59 48.7434 141.802 48.0502C142.033 47.3377 142.149 46.4615 142.149 45.4217C142.149 44.3818 142.033 43.5152 141.802 42.822C141.59 42.1287 141.244 41.6088 140.762 41.2622C140.281 40.9156 139.655 40.7423 138.885 40.7423C137.749 40.7423 136.921 41.137 136.401 41.9266C135.9 42.6968 135.65 43.8619 135.65 45.4217ZM159.051 37.276C160.745 37.276 162.103 37.7382 163.124 38.6625C164.144 39.5676 164.654 41.0311 164.654 43.0531V53.3362H160.351V44.1218C160.351 42.9857 160.148 42.1384 159.744 41.5799C159.34 41.0022 158.695 40.7134 157.809 40.7134C156.499 40.7134 155.604 41.1659 155.122 42.071C154.641 42.9568 154.4 44.2374 154.4 45.9127V53.3362H150.096V37.5649H153.389L153.967 39.5869H154.198C154.545 39.0477 154.968 38.6144 155.469 38.287C155.97 37.9404 156.528 37.6901 157.144 37.536C157.761 37.3627 158.396 37.276 159.051 37.276ZM184.874 53.3362H180.512V36.3517H174.908V32.7122H190.478V36.3517H184.874V53.3362ZM204.503 47.8191C204.426 47.4918 204.311 47.0103 204.157 46.3749C204.022 45.7201 203.868 45.0269 203.695 44.2951C203.521 43.5441 203.358 42.8605 203.203 42.2443C203.049 41.6088 202.944 41.1467 202.886 40.8578H202.77C202.712 41.1467 202.607 41.6088 202.452 42.2443C202.318 42.8605 202.164 43.5441 201.99 44.2951C201.817 45.0269 201.653 45.7201 201.499 46.3749C201.345 47.0296 201.23 47.5303 201.153 47.8769L199.882 53.3362H195.26L190.783 37.5649H195.058L196.878 44.5551C197.012 45.0365 197.128 45.6142 197.224 46.2882C197.34 46.9622 197.446 47.6169 197.542 48.2524C197.638 48.8686 197.706 49.3597 197.744 49.7255H197.86C197.879 49.4559 197.918 49.0997 197.975 48.6568C198.033 48.1946 198.1 47.7228 198.177 47.2414C198.274 46.76 198.351 46.3267 198.409 45.9416C198.486 45.5372 198.543 45.2676 198.582 45.1328L200.517 37.5649H205.254L207.103 45.1328C207.18 45.4024 207.267 45.8357 207.363 46.4326C207.478 47.0296 207.575 47.6362 207.652 48.2524C207.748 48.8686 207.796 49.3597 207.796 49.7255H207.912C207.95 49.3982 208.018 48.9264 208.114 48.3102C208.21 47.6747 208.316 47.0103 208.432 46.3171C208.567 45.6239 208.701 45.0365 208.836 44.5551L210.714 37.5649H214.931L210.396 53.3362H205.717L204.503 47.8191ZM221.79 37.5649V53.3362H217.486V37.5649H221.79ZM219.652 31.3835C220.287 31.3835 220.836 31.5375 221.298 31.8456C221.761 32.1345 221.992 32.6833 221.992 33.4921C221.992 34.2816 221.761 34.8304 221.298 35.1385C220.836 35.4467 220.287 35.6007 219.652 35.6007C218.997 35.6007 218.439 35.4467 217.977 35.1385C217.534 34.8304 217.312 34.2816 217.312 33.4921C217.312 32.6833 217.534 32.1345 217.977 31.8456C218.439 31.5375 218.997 31.3835 219.652 31.3835ZM232.93 50.1877C233.412 50.1877 233.874 50.1396 234.317 50.0433C234.76 49.947 235.202 49.8315 235.645 49.6967V52.9029C235.183 53.0955 234.605 53.2592 233.912 53.394C233.238 53.548 232.497 53.625 231.688 53.625C230.745 53.625 229.897 53.471 229.146 53.1629C228.414 52.8548 227.827 52.3252 227.384 51.5742C226.961 50.8039 226.749 49.7448 226.749 48.3968V40.8H224.698V38.9803L227.066 37.536L228.309 34.2142H231.053V37.5649H235.472V40.8H231.053V48.3968C231.053 48.9938 231.226 49.4463 231.573 49.7544C231.919 50.0433 232.372 50.1877 232.93 50.1877ZM245.455 50.1877C245.936 50.1877 246.398 50.1396 246.841 50.0433C247.284 49.947 247.727 49.8315 248.17 49.6967V52.9029C247.708 53.0955 247.13 53.2592 246.437 53.394C245.763 53.548 245.021 53.625 244.212 53.625C243.269 53.625 242.422 53.471 241.671 53.1629C240.939 52.8548 240.352 52.3252 239.909 51.5742C239.485 50.8039 239.273 49.7448 239.273 48.3968V40.8H237.222V38.9803L239.591 37.536L240.833 34.2142H243.577V37.5649H247.996V40.8H243.577V48.3968C243.577 48.9938 243.75 49.4463 244.097 49.7544C244.444 50.0433 244.896 50.1877 245.455 50.1877ZM257.835 37.276C259.298 37.276 260.55 37.5553 261.59 38.1137C262.649 38.6722 263.467 39.4809 264.045 40.5401C264.623 41.5992 264.911 42.899 264.911 44.4396V46.5193H254.744C254.782 47.7325 255.139 48.6857 255.813 49.3789C256.506 50.0722 257.459 50.4188 258.672 50.4188C259.693 50.4188 260.617 50.3225 261.445 50.1299C262.273 49.9181 263.13 49.6004 264.016 49.1767V52.4985C263.246 52.8836 262.427 53.1629 261.561 53.3362C260.713 53.5287 259.683 53.625 258.47 53.625C256.891 53.625 255.495 53.3362 254.282 52.7585C253.069 52.1615 252.115 51.2661 251.422 50.0722C250.729 48.8782 250.382 47.3762 250.382 45.5661C250.382 43.7174 250.69 42.1865 251.307 40.9733C251.942 39.7409 252.818 38.8166 253.935 38.2004C255.052 37.5842 256.352 37.276 257.835 37.276ZM257.863 40.3379C257.035 40.3379 256.342 40.6075 255.784 41.1467C255.245 41.6858 254.927 42.5235 254.83 43.6597H260.867C260.867 43.0242 260.752 42.4561 260.521 41.9554C260.309 41.4548 259.982 41.06 259.539 40.7711C259.096 40.4823 258.537 40.3379 257.863 40.3379ZM277.211 37.276C277.423 37.276 277.673 37.2857 277.962 37.3049C278.251 37.3242 278.482 37.3531 278.656 37.3916L278.338 41.4355C278.203 41.397 278.001 41.3681 277.731 41.3488C277.481 41.3103 277.259 41.2911 277.067 41.2911C276.508 41.2911 275.969 41.3681 275.449 41.5222C274.929 41.657 274.458 41.8784 274.034 42.1865C273.63 42.4946 273.302 42.9086 273.052 43.4286C272.821 43.9293 272.705 44.5551 272.705 45.3061V53.3362H268.401V37.5649H271.665L272.301 40.2223H272.503C272.811 39.6831 273.196 39.1921 273.658 38.7492C274.121 38.3063 274.65 37.95 275.247 37.6804C275.863 37.4108 276.518 37.276 277.211 37.276Z" fill="white"/>
<g clip-path="url(#clip0_509_3310)">
<path d="M323.542 34.8675C322.479 35.3485 321.337 35.6737 320.138 35.8199C321.362 35.0713 322.301 33.8859 322.744 32.4734C321.581 33.178 320.308 33.6744 318.981 33.9412C317.9 32.7657 316.36 32.031 314.655 32.031C311.382 32.031 308.729 34.7394 308.729 38.0798C308.729 38.554 308.781 39.0156 308.882 39.4584C303.957 39.2061 299.59 36.798 296.668 33.1383C296.158 34.0317 295.865 35.0709 295.865 36.1793C295.865 38.2779 296.912 40.1293 298.502 41.2141C297.561 41.184 296.64 40.9246 295.817 40.4574C295.817 40.4828 295.817 40.5081 295.817 40.5336C295.817 43.4644 297.86 45.9092 300.571 46.4649C299.698 46.7072 298.783 46.7426 297.894 46.5686C298.649 48.9718 300.837 50.7205 303.43 50.7695C301.402 52.3918 298.847 53.3589 296.07 53.3589C295.592 53.3589 295.12 53.3302 294.657 53.2744C297.279 54.9907 300.394 55.9921 303.741 55.9921C314.641 55.9921 320.602 46.7747 320.602 38.7814C320.602 38.519 320.596 38.2581 320.585 37.9988C321.745 37.1427 322.746 36.0823 323.542 34.8675Z" fill="white"/>
</g>
<defs>
<clipPath id="clip0_509_3310">
<rect width="28.8851" height="24.0709" fill="white" transform="translate(294.657 31.9364)"/>
</clipPath>
</defs>
</svg>
